<?xml version="1.0" encoding="utf-8"?>
<!-- Generator: Adobe Illustrator 21.1.0, SVG Export Plug-In . SVG Version: 6.00 Build 0)  -->
<svg version="1.1" id="Ebene_1" xmlns="http://www.w3.org/2000/svg" xmlns:xlink="http://www.w3.org/1999/xlink" x="0px" y="0px"
	 viewBox="0 0 128 128" style="enable-background:new 0 0 128 128;" xml:space="preserve">
<style type="text/css">
	.st0{fill:url(#path-2_2_);}
	.st1{fill:none;stroke:#000000;stroke-opacity:5.000000e-02;}
	.st2{fill:url(#answers-bubble_1_);}
	.st3{fill:#008864;}
</style>
<linearGradient id="path-2_2_" gradientUnits="userSpaceOnUse" x1="-887.0156" y1="-11.6484" x2="-886.0156" y2="-11.6484" gradientTransform="matrix(128 0 0 128 113538 1555)">
	<stop  offset="0" style="stop-color:#1DE9B6"/>
	<stop  offset="1" style="stop-color:#0ED9A6"/>
</linearGradient>
<circle id="path-2_1_" class="st0" cx="64" cy="64" r="64"/>
<circle class="st1" cx="64" cy="64" r="63.5"/>
<linearGradient id="answers-bubble_1_" gradientUnits="userSpaceOnUse" x1="-883.1288" y1="-7.7313" x2="-883.1288" y2="-6.7313" gradientTransform="matrix(86.2 0 0 67 76189.7969 553)">
	<stop  offset="0" style="stop-color:#FFFFFF"/>
	<stop  offset="1" style="stop-color:#F0F0F0"/>
</linearGradient>
<path id="answers-bubble" class="st2" d="M101.4,35H66.9c-1.5,0-6.2,0-7.7,0H26.7c-3.1,0-5.7,2.5-5.7,5.7v38.2
	c0,3.1,2.5,5.7,5.7,5.7h26.1c1.9,0.1,3.7,1.5,4.5,3c0.6,1.3,3.7,12,4,12.7s0.5,1.2,0.9,1.4c0.3,0.2,0.8,0.3,0.9,0.3l0,0l0,0l0,0l0,0
	c0.2,0,0.6-0.1,0.9-0.3c0.3-0.2,0.6-0.7,0.9-1.4c0.3-0.7,3.3-11.4,4-12.7c0.7-1.5,2.5-2.9,4.5-3h28.1c3.1,0,5.7-2.5,5.7-5.7V40.7
	C107.1,37.6,104.5,35,101.4,35z"/>
<path id="_x21_" class="st3" d="M66.8,72c0,0.9-0.3,1.8-1,2.4s-1.5,1-2.4,1c-1.9,0-3.4-1.5-3.4-3.4c0-0.9,0.3-1.8,1-2.4
	c0.6-0.7,1.5-1,2.4-1s1.8,0.3,2.4,1C66.5,70.2,66.9,71.1,66.8,72L66.8,72z M60.8,65.5L60,47h6.6l-0.7,20.2L60.8,65.5z"/>
</svg>
