<?xml version="1.0" encoding="UTF-8"?>
<svg width="48px" height="48px" viewBox="0 0 48 48" version="1.1" xmlns="http://www.w3.org/2000/svg" xmlns:xlink="http://www.w3.org/1999/xlink">
    <!-- Generator: Sketch 45.2 (43514) - http://www.bohemiancoding.com/sketch -->
    <title>Kandidat/unbekannt</title>
    <desc>Created with Sketch.</desc>
    <defs>
        <circle id="path-1" cx="24" cy="24" r="24"></circle>
    </defs>
    <g id="Symbols" stroke="none" stroke-width="1" fill="none" fill-rule="evenodd">
        <g id="Kandidat/unbekannt" fill-rule="nonzero">
            <g id="Oval">
                <use fill="#9B9B9B" fill-rule="evenodd" xlink:href="#path-1"></use>
                <circle stroke-opacity="0.05" stroke="#000000" stroke-width="1" cx="24" cy="24" r="23.5"></circle>
            </g>
            <path d="M32.6,17.6129795 C32.5594413,19.2321528 31.9586441,20.7871573 30.9,22.0129795 C29.4927392,23.5802902 27.7001167,24.7523895 25.7,25.4129795 L25.1,30.3129795 L20.1,28.7129795 L19.8,22.2129795 C21.4078804,21.7247133 22.927138,20.9819652 24.3,20.0129795 C25.5,19.1129795 26,18.3129795 26,17.4129795 C26.0240434,16.8289839 25.7630318,16.2696733 25.3,15.9129795 C24.7885188,15.5088382 24.1516697,15.2965552 23.5,15.3129795 C22.5499885,15.3667204 21.6098964,15.534594 20.7,15.8129795 C19.3258241,16.2371004 18.0142842,16.8424265 16.8,17.6129795 L16,12.1129795 C17.2033097,11.3690856 18.5209531,10.8285139 19.9,10.5129795 C21.142977,10.199442 22.4182242,10.0316463 23.7,10.0129795 C26.0511003,9.89051122 28.3649754,10.6380709 30.2,12.1129795 C31.7958528,13.485146 32.6793457,15.5098173 32.6,17.6129795 L32.6,17.6129795 Z M25.7,34.7129795 C25.7486583,35.6233688 25.3806926,36.5064864 24.7,37.1129795 C24.0478188,37.7264503 23.1948288,38.0818629 22.3,38.1129795 C21.3896107,38.1616378 20.5064931,37.7936721 19.9,37.1129795 C19.2310789,36.4981707 18.8655352,35.6208657 18.9,34.7129795 C18.8513417,33.8025902 19.2193074,32.9194725 19.9,32.3129795 C20.5346667,31.6729795 21.3986667,31.3129795 22.3,31.3129795 C23.2013333,31.3129795 24.0653333,31.6729795 24.7,32.3129795 C25.3806926,32.9194725 25.7486583,33.8025902 25.7,34.7129795 Z" id="?" fill="#FFFFFF"></path>
        </g>
    </g>
</svg>