<?xml version="1.0" encoding="UTF-8"?>
<svg width="136px" height="39px" viewBox="0 0 136 39" version="1.1" xmlns="http://www.w3.org/2000/svg" xmlns:xlink="http://www.w3.org/1999/xlink">
    <!-- Generator: Sketch 45.2 (43514) - http://www.bohemiancoding.com/sketch -->
    <title>+me-Logo/green</title>
    <desc>Created with Sketch.</desc>
    <defs></defs>
    <g id="Symbols" stroke="none" stroke-width="1" fill="none" fill-rule="evenodd">
        <g id="logo/green" fill-rule="nonzero" fill="#1DE8B5">
            <g id="+me-Logo/green">
                <polygon id="Shape" points="34.7878788 22.7878788 22.5454545 22.7878788 22.5454545 37.9393939 12.8484848 37.5757576 12.8484848 22.7878788 0.606060606 22.7878788 0 14.7878788 12.8484848 14.7878788 12.8484848 0.606060606 22.5454545 0.606060606 22.5454545 14.7878788 34.1818182 14.7878788"></polygon>
                <path d="M82.9090909,2.54545455 C87.5151515,2.54545455 90.7878788,3.87878788 92.8484848,6.66666667 C94.7878788,9.33333333 95.7575758,12.7272727 95.7575758,16.7272727 L95.7575758,38.1818182 L85.3333333,38.1818182 L85.3333333,17.0909091 C85.3333333,15.1515152 84.8484848,13.8181818 84,12.7272727 C83.030303,11.7575758 81.8181818,11.1515152 80.1212121,11.1515152 C79.030303,11.1515152 77.8181818,11.5151515 76.4848485,12.1212121 C75.1515152,12.7272727 73.9393939,13.4545455 72.8484848,14.1818182 C72.8484848,14.5454545 72.969697,15.030303 72.969697,15.3939394 C72.969697,15.7575758 73.0909091,16.2424242 73.0909091,16.6060606 L73.0909091,38.0606061 L62.6666667,38.0606061 L62.6666667,17.0909091 C62.6666667,15.1515152 62.1818182,13.8181818 61.3333333,12.7272727 C60.3636364,11.7575758 59.1515152,11.1515152 57.5757576,11.1515152 C56.4848485,11.1515152 55.3939394,11.3939394 54.3030303,11.8787879 C53.0909091,12.3636364 52,12.969697 50.9090909,13.5757576 L50.9090909,38.0606061 L40.4848485,38.0606061 L40.4848485,3.75757576 L45.8181818,3.75757576 L48.2424242,6.90909091 C49.6969697,5.6969697 51.6363636,4.60606061 53.8181818,3.75757576 C56,2.90909091 58.1818182,2.54545455 60.2424242,2.54545455 C62.7878788,2.54545455 64.8484848,3.03030303 66.5454545,3.87878788 C68.2424242,4.72727273 69.5757576,5.93939394 70.6666667,7.39393939 C72.1212121,6.06060606 74.0606061,4.84848485 76.3636364,3.87878788 C78.5454545,3.03030303 80.7272727,2.54545455 82.9090909,2.54545455 Z" id="Shape"></path>
                <path d="M120,2.78787879 C125.333333,2.78787879 129.333333,4.60606061 132,8.12121212 C134.545455,11.6363636 135.878788,15.8787879 135.878788,20.7272727 L135.878788,24.1212121 L113.575758,24.1212121 C114.060606,26.0606061 115.030303,27.5151515 116.484848,28.6060606 C117.939394,29.6969697 119.878788,30.1818182 122.181818,30.1818182 C123.757576,30.1818182 125.212121,30.0606061 126.545455,29.6969697 C127.878788,29.3333333 129.333333,28.8484848 130.909091,28 L133.939394,35.3939394 C132.242424,36.7272727 130.060606,37.5757576 127.636364,38.1818182 C125.090909,38.6666667 123.151515,38.9090909 121.69697,38.9090909 C115.878788,38.9090909 111.272727,37.3333333 107.757576,34.1818182 C104.242424,31.030303 102.545455,26.6666667 102.545455,20.969697 C102.545455,15.3939394 104.121212,11.030303 107.393939,7.75757576 C110.424242,4.48484848 114.666667,2.78787879 120,2.78787879 Z M119.757576,11.3939394 C118.181818,11.3939394 116.848485,11.8787879 115.636364,12.969697 C114.545455,14.0606061 113.818182,15.5151515 113.454545,17.3333333 L125.939394,17.3333333 C125.575758,15.5151515 124.969697,14.0606061 123.878788,12.969697 C122.909091,12 121.454545,11.3939394 119.757576,11.3939394 Z" id="Shape"></path>
            </g>
        </g>
    </g>
</svg>