<?xml version="1.0" encoding="UTF-8" standalone="no"?>
<svg
   xmlns:dc="http://purl.org/dc/elements/1.1/"
   xmlns:cc="http://creativecommons.org/ns#"
   xmlns:rdf="http://www.w3.org/1999/02/22-rdf-syntax-ns#"
   xmlns:svg="http://www.w3.org/2000/svg"
   xmlns="http://www.w3.org/2000/svg"
   xmlns:xlink="http://www.w3.org/1999/xlink"
   xmlns:sodipodi="http://sodipodi.sourceforge.net/DTD/sodipodi-0.dtd"
   xmlns:inkscape="http://www.inkscape.org/namespaces/inkscape"
   width="104px"
   height="58px"
   viewBox="0 0 104 58"
   version="1.1"
   id="svg42"
   sodipodi:docname="99999+me.svg"
   inkscape:version="0.92.1 r15371">
  <metadata
     id="metadata46">
    <rdf:RDF>
      <cc:Work
         rdf:about="">
        <dc:format>image/svg+xml</dc:format>
        <dc:type
           rdf:resource="http://purl.org/dc/dcmitype/StillImage" />
      </cc:Work>
    </rdf:RDF>
  </metadata>
  <sodipodi:namedview
     pagecolor="#ffffff"
     bordercolor="#666666"
     borderopacity="1"
     objecttolerance="10"
     gridtolerance="10"
     guidetolerance="10"
     inkscape:pageopacity="0"
     inkscape:pageshadow="2"
     inkscape:window-width="1416"
     inkscape:window-height="788"
     id="namedview44"
     showgrid="false"
     inkscape:zoom="3.4711538"
     inkscape:cx="52"
     inkscape:cy="29"
     inkscape:window-x="0"
     inkscape:window-y="0"
     inkscape:window-maximized="0"
     inkscape:current-layer="svg42" />
  <!-- Generator: Sketch 45.2 (43514) - http://www.bohemiancoding.com/sketch -->
  <title
     id="title2">+me-Avatar/99999+me</title>
  <desc
     id="desc4">Created with Sketch.</desc>
  <defs
     id="defs19">
    <circle
       id="path-1"
       cx="32"
       cy="24.1"
       r="24" />
    <path
       d="M11,9.5 L11,3 L7,3 L7,9.5 L0.5,9.5 L0.5,13.5 L7,13.5 L7,20 L11,20 L11,13.5 L17.5,13.5 L17.5,9.5 L11,9.5 Z"
       id="path-2" />
    <filter
       x="-11.8%"
       y="-11.8%"
       width="123.5%"
       height="123.5%"
       filterUnits="objectBoundingBox"
       id="filter-3">
      <feMorphology
         radius="0.5"
         operator="dilate"
         in="SourceAlpha"
         result="shadowSpreadOuter1"
         id="feMorphology8" />
      <feOffset
         dx="0"
         dy="0"
         in="shadowSpreadOuter1"
         result="shadowOffsetOuter1"
         id="feOffset10" />
      <feGaussianBlur
         stdDeviation="0.5"
         in="shadowOffsetOuter1"
         result="shadowBlurOuter1"
         id="feGaussianBlur12" />
      <feComposite
         in="shadowBlurOuter1"
         in2="SourceAlpha"
         operator="out"
         result="shadowBlurOuter1"
         id="feComposite14" />
      <feColorMatrix
         values="0 0 0 0 0   0 0 0 0 0   0 0 0 0 0  0 0 0 0.35 0"
         type="matrix"
         in="shadowBlurOuter1"
         id="feColorMatrix16" />
    </filter>
  </defs>
  <g
     style="fill:none;fill-rule:evenodd;stroke:none;stroke-width:1"
     id="+me-Avatar/default"
     transform="translate(48,10)">
    <g
       id="g31"
       style="fill-rule:evenodd;stroke-width:1">
      <g
         id="Oval"
         style="fill-rule:nonzero">
        <use
           xlink:href="#path-1"
           id="use21"
           style="fill:#15e1ae;fill-rule:evenodd"
           x="0"
           y="0"
           width="100%"
           height="100%" />
        <circle
           cx="32"
           cy="24.1"
           r="23.5"
           id="circle23"
           style="stroke:#000000;stroke-width:1;stroke-opacity:0.05" />
      </g>
      <g
         id="plus">
        <use
           xlink:href="#path-2"
           id="use26"
           style="fill:#000000;fill-opacity:1;filter:url(#filter-3)"
           x="0"
           y="0"
           width="100%"
           height="100%" />
        <use
           xlink:href="#path-2"
           id="use28"
           style="fill:#ffce0f;fill-rule:evenodd;stroke:#000000;stroke-width:1;stroke-opacity:0.05"
           x="0"
           y="0"
           width="100%"
           height="100%" />
      </g>
    </g>
    <path
       d="m 30.885965,17 c 1.833333,0 3.135965,0.523809 3.95614,1.619048 C 35.614035,19.666667 36,21 36,22.571429 V 31 h -4.149123 v -8.285714 c 0,-0.761905 -0.192982,-1.285715 -0.530702,-1.714286 -0.385965,-0.380952 -0.868421,-0.619048 -1.543859,-0.619048 -0.434211,0 -0.916667,0.142857 -1.447369,0.380953 -0.530701,0.238095 -1.013158,0.523809 -1.447368,0.809524 0,0.142857 0.04825,0.333333 0.04825,0.47619 0,0.142857 0.04824,0.333333 0.04824,0.47619 v 8.428572 h -4.149123 v -8.238095 c 0,-0.761905 -0.192982,-1.285715 -0.530701,-1.714286 -0.385965,-0.380952 -0.868421,-0.619048 -1.495614,-0.619048 -0.434211,0 -0.868422,0.09524 -1.302632,0.285715 -0.482456,0.190476 -0.916667,0.428571 -1.350877,0.666666 v 9.619048 H 14 v -13.47619 h 2.122807 l 0.964912,1.238095 c 0.578948,-0.476191 1.350877,-0.904762 2.219298,-1.238095 C 20.175439,17.142857 21.04386,17 21.864035,17 c 1.013158,0 1.833333,0.190476 2.508772,0.523809 0.675439,0.333334 1.20614,0.809524 1.640351,1.380953 0.578947,-0.52381 1.350877,-1 2.267544,-1.380953 C 29.149123,17.190476 30.017544,17 30.885965,17 Z"
       id="Shape"
       inkscape:connector-curvature="0"
       style="fill:#ffffff;fill-rule:nonzero" />
    <path
       d="m 44.807273,17 c 2.08,0 3.64,0.704698 4.68,2.067114 C 50.48,20.42953 51,22.073826 51,23.95302 v 1.315436 h -8.698182 c 0.189091,0.751678 0.567273,1.315437 1.134546,1.738255 0.567272,0.422819 1.323636,0.610739 2.221818,0.610739 0.614545,0 1.181818,-0.04698 1.701818,-0.18792 0.52,-0.140939 1.087273,-0.328859 1.701818,-0.657718 l 1.181818,2.865772 c -0.661818,0.516778 -1.512727,0.845637 -2.458182,1.080537 C 46.792727,30.90604 46.036364,31 45.469091,31 43.2,31 41.403636,30.389262 40.032727,29.167785 38.661818,27.946309 38,26.255034 38,24.04698 38,21.885906 38.614545,20.194631 39.890909,18.926174 41.072727,17.657718 42.727273,17 44.807273,17 Z m -0.09455,3.33557 c -0.614545,0 -1.134545,0.18792 -1.607273,0.610739 -0.425454,0.422818 -0.70909,0.986577 -0.850909,1.691275 h 4.869091 C 46.981818,21.932886 46.745454,21.369127 46.32,20.946309 45.941818,20.57047 45.374546,20.33557 44.712727,20.33557 Z"
       id="path34"
       inkscape:connector-curvature="0"
       style="fill:#ffffff;fill-rule:nonzero" />
  </g>
</svg>
