<?xml version="1.0" encoding="UTF-8" standalone="no"?>
<svg
   xmlns:dc="http://purl.org/dc/elements/1.1/"
   xmlns:cc="http://creativecommons.org/ns#"
   xmlns:rdf="http://www.w3.org/1999/02/22-rdf-syntax-ns#"
   xmlns:svg="http://www.w3.org/2000/svg"
   xmlns="http://www.w3.org/2000/svg"
   xmlns:xlink="http://www.w3.org/1999/xlink"
   xmlns:sodipodi="http://sodipodi.sourceforge.net/DTD/sodipodi-0.dtd"
   xmlns:inkscape="http://www.inkscape.org/namespaces/inkscape"
   width="32"
   height="23"
   viewBox="0 0 32 23"
   version="1.1"
   id="svg51"
   sodipodi:docname="lasche_mitte_gruen.svg"
   inkscape:version="0.92.1 r15371">
  <metadata
     id="metadata55">
    <rdf:RDF>
      <cc:Work
         rdf:about="">
        <dc:format>image/svg+xml</dc:format>
        <dc:type
           rdf:resource="http://purl.org/dc/dcmitype/StillImage" />
        <dc:title>Antwort-Bubble/positiv bewertet</dc:title>
      </cc:Work>
    </rdf:RDF>
  </metadata>
  <sodipodi:namedview
     pagecolor="#ffffff"
     bordercolor="#666666"
     borderopacity="1"
     objecttolerance="10"
     gridtolerance="10"
     guidetolerance="10"
     inkscape:pageopacity="0"
     inkscape:pageshadow="2"
     inkscape:window-width="2560"
     inkscape:window-height="1373"
     id="namedview53"
     showgrid="true"
     fit-margin-top="0"
     fit-margin-left="0"
     fit-margin-right="0"
     fit-margin-bottom="0"
     inkscape:zoom="23.898734"
     inkscape:cx="14.719716"
     inkscape:cy="17.038391"
     inkscape:window-x="0"
     inkscape:window-y="0"
     inkscape:window-maximized="1"
     inkscape:current-layer="svg51">
    <inkscape:grid
       type="xygrid"
       id="grid4546"
       originx="-132"
       originy="-1.5" />
  </sodipodi:namedview>
  <!-- Generator: Sketch 45.2 (43514) - http://www.bohemiancoding.com/sketch -->
  <title
     id="title2">Antwort-Bubble/positiv bewertet</title>
  <desc
     id="desc4">Created with Sketch.</desc>
  <defs
     id="defs14">
    <path
       d="M 7,0 C 3.134,0 0,3.134 0,7 v 278.25733 c 0,3.866 3.134,7 7,7 h 125 c 2.746,0 4.331,1.886 5.054,3.068 l 0.482,0.934 8.464,16.398 c 0.382,0.725 1.129,1.227 2,1.227 0.871,0 1.618,-0.502 1.99,-1.227 l 8.474,-16.398 0.481,-0.934 c 0.725,-1.182 2.309,-3.068 5.055,-3.068 h 125 c 3.866,0 7,-3.134 7,-7 V 7 c 0,-3.866 -3.134,-7 -7,-7 z"
       id="path-1"
       inkscape:connector-curvature="0" />
    <filter
       x="-0.0069999998"
       y="-0.003"
       width="1.0140001"
       height="1.013"
       filterUnits="objectBoundingBox"
       id="filter-2">
      <feOffset
         dx="0"
         dy="1"
         in="SourceAlpha"
         result="shadowOffsetOuter1"
         id="feOffset7" />
      <feGaussianBlur
         stdDeviation="0.5"
         in="shadowOffsetOuter1"
         result="shadowBlurOuter1"
         id="feGaussianBlur9" />
      <feColorMatrix
         values="0 0 0 0 0   0 0 0 0 0   0 0 0 0 0  0 0 0 0.35 0"
         type="matrix"
         in="shadowBlurOuter1"
         id="feColorMatrix11" />
    </filter>
    <clipPath
       clipPathUnits="userSpaceOnUse"
       id="clipPath4542">
      <g
         id="use4544"
         inkscape:label="Clip">
        <use
           xlink:href="#path-1"
           id="use4550"
           style="display:inline;fill:#78e4c9;fill-rule:evenodd"
           x="0"
           y="0"
           width="100%"
           height="100%" />
      </g>
    </clipPath>
  </defs>
  <g
     id="g4558">
    <path
       sodipodi:nodetypes="ccccccc"
       inkscape:connector-curvature="0"
       id="path4548"
       d="m 0,0.5 c 1.92479,0 4.07945,1.28443 5,3 l 9,17 c 0,0 0.95392,2 2,2 1.00424,0 2,-2 2,-2 l 9,-17 c 1.08369,-1.62341 3.28443,-3 5,-3"
       style="fill:#78e4c9;fill-opacity:1;fill-rule:evenodd;stroke:#78e4c9;stroke-width:1px;stroke-linecap:butt;stroke-linejoin:miter;stroke-opacity:1" />
    <path
       inkscape:connector-curvature="0"
       id="path4554"
       d="m 0,0.5 h 32 v 0"
       style="fill:none;fill-rule:evenodd;stroke:#78e4c9;stroke-width:1px;stroke-linecap:butt;stroke-linejoin:miter;stroke-opacity:1" />
  </g>
</svg>
