<?xml version="1.0" encoding="utf-8"?>
<!-- Generator: Adobe Illustrator 21.1.0, SVG Export Plug-In . SVG Version: 6.00 Build 0)  -->
<svg version="1.1" id="Ebene_1" xmlns="http://www.w3.org/2000/svg" xmlns:xlink="http://www.w3.org/1999/xlink" x="0px" y="0px"
	 viewBox="0 0 136 39" style="enable-background:new 0 0 136 39;" xml:space="preserve">
<style type="text/css">
	.st0{fill:#FFFFFF;}
	.st1{fill:#FF6E40;}
</style>
<g id="Symbols_1_">
	<g id="logo_x2F_white_1_">
		<g id="_x2B_me-Logo_x2F_white_1_">
			<polygon id="Shape_5_" class="st0" points="34.8,22.8 22.5,22.8 22.5,37.9 12.8,37.6 12.8,22.8 0.6,22.8 0,14.8 12.8,14.8 
				12.8,0.6 22.5,0.6 22.5,14.8 34.2,14.8 			"/>
			<path id="Shape_4_" class="st0" d="M82.9,2.5c4.6,0,7.9,1.3,9.9,4.1c1.9,2.7,2.9,6.1,2.9,10.1v21.5H85.3V17.1
				c0-1.9-0.5-3.3-1.3-4.4c-1-1-2.2-1.6-3.9-1.6c-1.1,0-2.3,0.4-3.6,1s-2.5,1.3-3.6,2.1c0,0.4,0.1,0.8,0.1,1.2
				c0,0.4,0.1,0.8,0.1,1.2v21.5H62.7v-21c0-1.9-0.5-3.3-1.3-4.4c-1-1-2.2-1.6-3.8-1.6c-1.1,0-2.2,0.2-3.3,0.7
				c-1.2,0.5-2.3,1.1-3.4,1.7v24.5H40.5V3.8h5.3l2.4,3.2c1.5-1.2,3.4-2.3,5.6-3.2c2.2-0.8,4.4-1.2,6.4-1.2c2.5,0,4.6,0.5,6.3,1.3
				s3,2.1,4.1,3.5c1.5-1.3,3.4-2.5,5.7-3.5C78.5,3,80.7,2.5,82.9,2.5z"/>
			<path id="Shape_3_" class="st0" d="M120,2.8c5.3,0,9.3,1.8,12,5.3c2.5,3.5,3.9,7.8,3.9,12.6v3.4h-22.3c0.5,1.9,1.5,3.4,2.9,4.5
				c1.5,1.1,3.4,1.6,5.7,1.6c1.6,0,3-0.1,4.4-0.5s2.8-0.8,4.4-1.7l3,7.4c-1.7,1.3-3.9,2.2-6.3,2.8c-2.5,0.5-4.5,0.7-5.9,0.7
				c-5.8,0-10.4-1.6-13.9-4.7c-3.5-3.2-5.2-7.5-5.2-13.2c0-5.6,1.6-9.9,4.8-13.2C110.4,4.5,114.7,2.8,120,2.8z M119.8,11.4
				c-1.6,0-2.9,0.5-4.1,1.6c-1.1,1.1-1.8,2.5-2.2,4.4h12.5c-0.4-1.8-1-3.3-2.1-4.4C122.9,12,121.5,11.4,119.8,11.4z"/>
		</g>
	</g>
</g>
<g>
	<g>
		<path class="st1" d="M77.7,38.2v-16h5.3c1.8,0,3.3,0.4,4.6,1.1c1.3,0.7,2,1.9,2,3.5v0.1c0,0.6-0.1,1.1-0.4,1.5
			c-0.2,0.5-0.5,0.9-0.9,1.2c0.6,0.4,1.1,1,1.5,1.6c0.4,0.6,0.6,1.3,0.6,2.1c0,1.8-0.7,3.1-2.1,3.8c-1.4,0.7-2.9,1-4.7,1H77.7z
			 M82.9,25.5H82v2.7h1c0.7,0,1.2-0.1,1.6-0.3c0.4-0.2,0.6-0.5,0.6-0.9c0-0.5-0.2-0.9-0.6-1.1C84.2,25.7,83.6,25.5,82.9,25.5z
			 M83.8,31.6H82v3.2h1.9c0.7,0,1.2-0.1,1.6-0.4c0.4-0.2,0.6-0.6,0.6-1.1c0-0.5-0.2-0.9-0.6-1.2C85.1,31.8,84.5,31.6,83.8,31.6z"/>
	</g>
	<g>
		<path class="st1" d="M93.9,38.2v-16h10.6l0.4,3.4h-6.7v2.9h4.9l0.4,3.4h-5.3v3h7l0.4,3.4H93.9z"/>
	</g>
	<g>
		<path class="st1" d="M112,38.2V25.5h-4.7v-3.4h13.7l0.4,3.4h-5.1v12.6H112z"/>
	</g>
	<g>
		<path class="st1" d="M130,22.2l6,15.6l-4.2,0.4l-1.1-3.2h-5.5l-1.1,3.2h-4.2l6-16H130z M127.8,27.3l-1.5,4.4h3.1L127.8,27.3z"/>
	</g>
</g>
</svg>
