<?xml version="1.0" encoding="utf-8"?>
<!-- Generator: Adobe Illustrator 21.1.0, SVG Export Plug-In . SVG Version: 6.00 Build 0)  -->
<svg version="1.1" id="Ebene_1" xmlns="http://www.w3.org/2000/svg" xmlns:xlink="http://www.w3.org/1999/xlink" x="0px" y="0px"
	 viewBox="0 0 128 128" style="enable-background:new 0 0 128 128;" xml:space="preserve">
<style type="text/css">
	.st0{fill:url(#path-2_2_);}
	.st1{fill:none;stroke:#000000;stroke-opacity:5.000000e-02;}
	.st2{fill:url(#offene-bubble_1_);}
	.st3{fill:#008864;}
</style>
<linearGradient id="path-2_2_" gradientUnits="userSpaceOnUse" x1="-887.0156" y1="-4.5938" x2="-886.0156" y2="-4.5938" gradientTransform="matrix(128 0 0 128 113538 652)">
	<stop  offset="0" style="stop-color:#1DE9B6"/>
	<stop  offset="1" style="stop-color:#0ED9A6"/>
</linearGradient>
<circle id="path-2_1_" class="st0" cx="64" cy="64" r="64"/>
<circle class="st1" cx="64" cy="64" r="63.5"/>
<linearGradient id="offene-bubble_1_" gradientUnits="userSpaceOnUse" x1="-883.2241" y1="-0.6269" x2="-883.2241" y2="0.3731" gradientTransform="matrix(87 0 0 67 76902 75)">
	<stop  offset="0" style="stop-color:#FFFFFF"/>
	<stop  offset="1" style="stop-color:#F0F0F0"/>
</linearGradient>
<path id="offene-bubble" class="st2" d="M99.2,33H23.7c-3.1,0-5.7,2.5-5.7,5.7v38.2c0,3.1,2.5,5.7,5.7,5.7h65.2
	c1.9,0.1,3.6,1.2,4.5,2.8l8.2,13.7c0.3,0.6,0.9,0.9,1.6,0.9c1,0,1.8-0.8,1.8-1.8V76.9v-1.4V38.7C104.9,35.5,102.4,33,99.2,33z"/>
<polygon id="plus" class="st3" points="71,60.5 64,60.5 64,69 58.4,68.8 58.4,60.5 51.3,60.5 51,56 58.4,56 58.4,48 64,48 64,56 
	70.7,56 "/>
</svg>
