<?xml version="1.0" encoding="utf-8"?>
<!-- Generator: Adobe Illustrator 21.1.0, SVG Export Plug-In . SVG Version: 6.00 Build 0)  -->
<svg version="1.1" id="Ebene_1" xmlns="http://www.w3.org/2000/svg" xmlns:xlink="http://www.w3.org/1999/xlink" x="0px" y="0px"
	 viewBox="0 0 128 128" style="enable-background:new 0 0 128 128;" xml:space="preserve">
<style type="text/css">
	.st0{fill:url(#path-2_2_);}
	.st1{fill:none;stroke:#000000;stroke-opacity:5.000000e-02;}
	.st2{fill:url(#answers-bubble_1_);}
	.st3{fill:#008864;}
</style>
<linearGradient id="path-2_2_" gradientUnits="userSpaceOnUse" x1="-887.0156" y1="-4.5938" x2="-886.0156" y2="-4.5938" gradientTransform="matrix(128 0 0 128 113538 652)">
	<stop  offset="0" style="stop-color:#1DE9B6"/>
	<stop  offset="1" style="stop-color:#0ED9A6"/>
</linearGradient>
<circle id="path-2_1_" class="st0" cx="64" cy="64" r="64"/>
<circle class="st1" cx="64" cy="64" r="63.5"/>
<linearGradient id="answers-bubble_1_" gradientUnits="userSpaceOnUse" x1="-883.1288" y1="-19.3731" x2="-883.1288" y2="-18.3731" gradientTransform="matrix(86.2 0 0 -67 76189.7969 -1209)">
	<stop  offset="0" style="stop-color:#FFFFFF"/>
	<stop  offset="1" style="stop-color:#F0F0F0"/>
</linearGradient>
<path id="answers-bubble" class="st2" d="M101.4,89H66.9c-1.5,0-6.2,0-7.7,0H26.7c-3.1,0-5.7-2.5-5.7-5.7V45.1
	c0-3.1,2.5-5.7,5.7-5.7h26.1c1.9-0.1,3.7-1.5,4.5-3c0.6-1.3,3.7-12,4-12.7s0.5-1.2,0.9-1.4c0.3-0.2,0.8-0.3,0.9-0.3l0,0l0,0l0,0l0,0
	c0.2,0,0.6,0.1,0.9,0.3c0.3,0.2,0.6,0.7,0.9,1.4c0.3,0.7,3.3,11.4,4,12.7c0.7,1.5,2.5,2.9,4.5,3h28.1c3.1,0,5.7,2.5,5.7,5.7v38.2
	C107.1,86.4,104.5,89,101.4,89z"/>
<path id="Shape" class="st3" d="M64.2,55c0.8,0,1.6-0.2,2.2-0.8c0.6-0.6,0.8-1.3,0.8-2c0-0.8-0.2-1.6-0.8-2.2
	c-0.6-0.7-1.3-0.9-2.2-0.9c-0.9,0-1.6,0.2-2,0.8c-0.6,0.6-0.8,1.3-0.8,2.2c0,0.9,0.2,1.6,0.8,2C62.8,54.7,63.4,55,64.2,55z"/>
<polygon id="Shape_1_" class="st3" points="67,70.8 67,57.2 58.2,58 58.5,61.8 61.6,61.4 61.6,70.8 58.5,70.8 58.5,75 70,75 
	70,70.8 "/>
</svg>
