<?xml version="1.0" encoding="utf-8"?>
<!-- Generator: Adobe Illustrator 21.1.0, SVG Export Plug-In . SVG Version: 6.00 Build 0)  -->
<svg version="1.1" id="Ebene_1" xmlns="http://www.w3.org/2000/svg" xmlns:xlink="http://www.w3.org/1999/xlink" x="0px" y="0px"
	 viewBox="0 0 128 128" style="enable-background:new 0 0 128 128;" xml:space="preserve">
<style type="text/css">
	.st0{fill:url(#path-2_2_);}
	.st1{fill:none;stroke:#000000;stroke-opacity:5.000000e-02;}
	.st2{fill:url(#offene-bubble_1_);}
	.st3{fill:#008864;}
</style>
<linearGradient id="path-2_2_" gradientUnits="userSpaceOnUse" x1="-887.0156" y1="-4.5938" x2="-886.0156" y2="-4.5938" gradientTransform="matrix(128 0 0 128 113538 652)">
	<stop  offset="0" style="stop-color:#1DE9B6"/>
	<stop  offset="1" style="stop-color:#0ED9A6"/>
</linearGradient>
<circle id="path-2_1_" class="st0" cx="64" cy="64" r="64"/>
<circle class="st1" cx="64" cy="64" r="63.5"/>
<linearGradient id="offene-bubble_1_" gradientUnits="userSpaceOnUse" x1="-883.2123" y1="-0.6269" x2="-883.2123" y2="0.3731" gradientTransform="matrix(86.9 0 0 67 76812.7031 74.6992)">
	<stop  offset="0" style="stop-color:#FFFFFF"/>
	<stop  offset="1" style="stop-color:#F0F0F0"/>
</linearGradient>
<path id="offene-bubble" class="st2" d="M99.2,32.7H23.8c-3.1,0-5.7,2.5-5.7,5.7v38.2c0,3.1,2.5,5.7,5.7,5.7h65.1
	c1.9,0.1,3.6,1.2,4.5,2.8l8.2,13.7c0.3,0.6,0.9,0.9,1.6,0.9c1,0,1.8-0.8,1.8-1.8V76.6v-1.4V38.4C104.9,35.2,102.4,32.7,99.2,32.7z"
	/>
<path id="_x3F_" class="st3" d="M71.6,52.6c0,1.6-0.6,3.2-1.7,4.4c-1.4,1.6-3.2,2.7-5.2,3.4l-0.6,4.9l-5-1.6l-0.3-6.5
	c1.6-0.5,3.1-1.2,4.5-2.2c1.2-0.9,1.7-1.7,1.7-2.6c0-0.6-0.2-1.1-0.7-1.5s-1.1-0.6-1.8-0.6c-1,0.1-1.9,0.2-2.8,0.5
	c-1.4,0.4-2.7,1-3.9,1.8L55,47.1c1.2-0.7,2.5-1.3,3.9-1.6c1.2-0.3,2.5-0.5,3.8-0.5c2.4-0.1,4.7,0.6,6.5,2.1
	C70.8,48.5,71.7,50.5,71.6,52.6L71.6,52.6z M64.7,69.7c0,0.9-0.3,1.8-1,2.4c-0.7,0.6-1.5,1-2.4,1s-1.8-0.3-2.4-1
	c-0.7-0.6-1-1.5-1-2.4s0.3-1.8,1-2.4c0.6-0.6,1.5-1,2.4-1s1.8,0.4,2.4,1C64.4,67.9,64.7,68.8,64.7,69.7z"/>
</svg>
