<?xml version="1.0" encoding="utf-8"?>
<!-- Generator: Adobe Illustrator 21.1.0, SVG Export Plug-In . SVG Version: 6.00 Build 0)  -->
<svg version="1.1" id="Ebene_1" xmlns="http://www.w3.org/2000/svg" xmlns:xlink="http://www.w3.org/1999/xlink" x="0px" y="0px"
	 viewBox="0 0 73 36" style="enable-background:new 0 0 73 36;" xml:space="preserve">
<style type="text/css">
	.st0{fill:#FFDD5A;stroke:#616161;stroke-width:1.6155;}
	.st1{fill:#FFDD5A;stroke:#616161;stroke-width:1.5205;}
</style>
<title>Fragen finden/passiv</title>
<desc>Created with Sketch.</desc>
<g id="Symbols">
	<g id="Fragen-finden_x2F_passiv-Copy" transform="translate(-1.000000, 0.000000)">
		<g id="Fragen-finden_x2F_passiv">
			<g id="Group" transform="translate(18.000000, 0.000000)">
				<path id="Shape" class="st0" d="M14.9,22.7c0,4-14.3,4-14.3,0s3.2-9.8,7.2-9.8S14.9,18.7,14.9,22.7z"/>
				<path id="Shape_1_" class="st0" d="M39.4,22.7c0,4-14.3,4-14.3,0s3.2-9.8,7.2-9.8S39.4,18.7,39.4,22.7z"/>
				<path id="Shape_2_" class="st1" d="M30.3,28.7c0,5.7-20.5,5.7-20.5,0s4.6-14.1,10.3-14.1S30.3,23,30.3,28.7z"/>
				<circle id="Oval" class="st0" cx="32.1" cy="9.2" r="5.3"/>
				<circle id="Oval_1_" class="st0" cx="7.9" cy="9.2" r="5.3"/>
				<circle id="Oval_2_" class="st1" cx="20" cy="8.5" r="7.6"/>
			</g>
		</g>
	</g>
</g>
</svg>
