<?xml version="1.0" encoding="utf-8"?>
<!-- Generator: Adobe Illustrator 21.1.0, SVG Export Plug-In . SVG Version: 6.00 Build 0)  -->
<svg version="1.1" id="Ebene_1" xmlns="http://www.w3.org/2000/svg" xmlns:xlink="http://www.w3.org/1999/xlink" x="0px" y="0px"
	 viewBox="0 0 36 36" style="enable-background:new 0 0 36 36;" xml:space="preserve">
<style type="text/css">
	.st0{fill:#15E1AE;stroke:#008864;stroke-width:1.52;}
</style>
<title>Home-Icon/Aktiv</title>
<desc>Created with Sketch.</desc>
<g id="Symbols">
	<g id="Navigation-Bar_x2F_Home-Icon_x2F_Aktiv" transform="translate(-20.000000, 1.000000)">
		<g id="Home-Icon_x2F_Aktiv">
			<path id="Shape-Copy" class="st0" d="M54,12.9L38.9,0.3c-0.6-0.5-1.3-0.5-1.9,0L21.5,12.9c-0.5,0.4-0.7,1.1-0.5,1.7
				c0.2,0.6,0.8,1,1.4,1h2.3v15.1c0,0.7,0.6,1.3,1.4,1.4h7.5V21.7c0-0.7,0.6-1.3,1.4-1.4h6.3c0.7,0,1.3,0.6,1.4,1.4V32H50
				c0.7,0,1.3-0.6,1.4-1.4V15.6h1.8c0.6,0,1.2-0.4,1.4-1S54.5,13.3,54,12.9L54,12.9z"/>
		</g>
	</g>
</g>
</svg>
