<?xml version="1.0" encoding="UTF-8"?>
<svg width="32px" height="31px" viewBox="0 0 32 31" version="1.1" xmlns="http://www.w3.org/2000/svg" xmlns:xlink="http://www.w3.org/1999/xlink">
    <!-- Generator: Sketch 45.2 (43514) - http://www.bohemiancoding.com/sketch -->
    <title>Lupe</title>
    <desc>Created with Sketch.</desc>
    <defs></defs>
    <g id="Symbols" stroke="none" stroke-width="1" fill="none" fill-rule="evenodd">
        <g id="Navigation-Bar/Fragen-suchen/passiv" transform="translate(-25.000000, 0.000000)">
            <g id="Fragen-suchen" transform="translate(0.000000, 1.000000)">
                <g id="Lupe" transform="translate(26.000000, 0.000000)">
                    <circle id="Oval" stroke="#616161" stroke-width="2.1" cx="19" cy="10.6" r="10.5"></circle>
                    <path d="M11.9,17.7 L0.3,29.3" id="Shape" stroke="#616161" stroke-width="2"></path>
                    <path d="M19.5,12.7 L17.9,12.7 L17.3,16.1 L15.8,16.1 L16.4,12.7 L14.5,12.7 L14.5,11.3 L16.6,11.3 L17,9 L15.1,9 L15.1,7.6 L17.3,7.6 L17.9,4.2 L19.4,4.2 L18.8,7.6 L20.4,7.6 L21,4.2 L22.5,4.2 L21.9,7.6 L23.7,7.6 L23.7,9 L21.6,9 L21.2,11.3 L23,11.3 L23,12.7 L21,12.7 L20.4,16.1 L18.9,16.1 L19.5,12.7 Z M18.2,11.3 L19.8,11.3 L20.2,9 L18.6,9 L18.2,11.3 Z" id="Shape" fill="#616161" fill-rule="nonzero"></path>
                </g>
            </g>
        </g>
    </g>
</svg>